<?xml version="1.0" encoding="UTF-8" standalone="no"?>
<!DOCTYPE svg PUBLIC "-//W3C//DTD SVG 1.1//EN"
 "http://www.w3.org/Graphics/SVG/1.1/DTD/svg11.dtd">
<!-- Generated by graphviz version 2.43.0 (0)
 -->
<!-- Title: %3 Pages: 1 -->
<svg width="184pt" height="141pt"
 viewBox="0.00 0.00 184.35 140.70" xmlns="http://www.w3.org/2000/svg" xmlns:xlink="http://www.w3.org/1999/xlink">
<g id="graph0" class="graph" transform="scale(1 1) rotate(0) translate(4 136.7)">
<title>%3</title>
<polygon fill="white" stroke="transparent" points="-4,4 -4,-136.7 180.35,-136.7 180.35,4 -4,4"/>
<!-- int -->
<g id="node1" class="node">
<title>int</title>
<polygon fill="none" stroke="black" points="151,-132.7 53,-132.7 53,-96.7 151,-96.7 151,-132.7"/>
<text text-anchor="middle" x="102" y="-111" font-family="Times,serif" font-size="14.00">int (0.5 J/K)</text>
</g>
<!-- wall -->
<g id="node2" class="node">
<title>wall</title>
<polygon fill="none" stroke="black" points="108,-43.35 0,-43.35 0,-7.35 108,-7.35 108,-43.35"/>
<text text-anchor="middle" x="54" y="-21.65" font-family="Times,serif" font-size="14.00">wall (1.0 J/K)</text>
</g>
<!-- int&#45;&#45;wall -->
<g id="edge1" class="edge">
<title>int&#45;&#45;wall</title>
<path fill="none" stroke="black" d="M92.52,-96.44C84.1,-81.13 71.87,-58.87 63.46,-43.57"/>
<text text-anchor="middle" x="101.5" y="-71.5" font-family="Times,serif" font-size="9.00">0.7 W/K</text>
</g>
<!-- ext -->
<g id="node3" class="node">
<title>ext</title>
<ellipse fill="none" stroke="black" cx="151" cy="-25.35" rx="25.2" ry="25.2"/>
<text text-anchor="middle" x="151" y="-21.65" font-family="Times,serif" font-size="14.00">ext</text>
</g>
<!-- int&#45;&#45;ext -->
<g id="edge2" class="edge">
<title>int&#45;&#45;ext</title>
<path fill="none" stroke="black" d="M113.26,-96.43C116.8,-90.83 120.66,-84.55 124,-78.7 129.58,-68.93 135.35,-57.89 140.11,-48.47"/>
<text text-anchor="middle" x="147.5" y="-71.5" font-family="Times,serif" font-size="9.00">2.0 W/K</text>
</g>
</g>
</svg>
